<?xml version="1.0" encoding="UTF-8" standalone="no"?>
<svg
   xmlns:dc="http://purl.org/dc/elements/1.1/"
   xmlns:cc="http://creativecommons.org/ns#"
   xmlns:rdf="http://www.w3.org/1999/02/22-rdf-syntax-ns#"
   xmlns:svg="http://www.w3.org/2000/svg"
   xmlns="http://www.w3.org/2000/svg"
   xmlns:sodipodi="http://sodipodi.sourceforge.net/DTD/sodipodi-0.dtd"
   xmlns:inkscape="http://www.inkscape.org/namespaces/inkscape"
   width="16"
   height="16"
   version="1.1"
   id="svg16"
   sodipodi:docname="network-symbolic.svg"
   inkscape:version="0.92.3 (2405546, 2018-03-11)"
   enable-background="new">
  <sodipodi:namedview
     pagecolor="#ffffff"
     bordercolor="#666666"
     borderopacity="1"
     objecttolerance="10"
     gridtolerance="10"
     guidetolerance="10"
     inkscape:pageopacity="0"
     inkscape:pageshadow="2"
     inkscape:window-width="1366"
     inkscape:window-height="705"
     id="namedview18"
     showgrid="false"
     inkscape:zoom="29.5"
     inkscape:cx="-0.99435773"
     inkscape:cy="8.4108335"
     inkscape:window-x="-8"
     inkscape:window-y="-8"
     inkscape:window-maximized="1"
     inkscape:current-layer="svg16"
     inkscape:pagecheckerboard="true" />
  <metadata
     id="metadata22">
    <rdf:RDF>
      <cc:Work
         rdf:about="">
        <dc:format>image/svg+xml</dc:format>
        <dc:type
           rdf:resource="http://purl.org/dc/dcmitype/StillImage" />
        <dc:title />
      </cc:Work>
    </rdf:RDF>
  </metadata>
  <defs
     id="defs20">
    <linearGradient
       gradientUnits="userSpaceOnUse"
       gradientTransform="matrix(15.354,0,0,20,-20.354966,-5.3898307)"
       y2="0.71023709"
       x2="0.85220069"
       y1="0.15974073"
       x1="-0.046328004"
       id="_lgradient_20-347">
      <stop
         id="stop855"
         style="stop-color:#3af12d;opacity:1"
         stop-opacity="1"
         offset="3.0434782608695654%" />
      <stop
         id="stop857"
         style="stop-color:#7aff08;opacity:1"
         stop-opacity="1"
         offset="98.69565217391305%" />
    </linearGradient>
    <linearGradient
       y2="31.308711"
       x2="33.581282"
       y1="21.38439"
       x1="17.382651"
       id="_lgradient_21-456"
       gradientTransform="matrix(0.87941222,0,0,1.1371232,-36.625966,-26.681831)"
       gradientUnits="userSpaceOnUse">
      <stop
         id="stop860"
         style="stop-color:#3af12d;opacity:1"
         stop-opacity="1"
         offset="3.0434782608695654%" />
      <stop
         id="stop862"
         style="stop-color:#7aff08;opacity:1"
         stop-opacity="1"
         offset="98.69565217391305%" />
    </linearGradient>
    <linearGradient
       gradientUnits="userSpaceOnUse"
       gradientTransform="matrix(15.354,0,0,20,0.25,0.25)"
       y2="0.71023709"
       x2="0.85220069"
       y1="0.15974073"
       x1="-0.046328004"
       id="_lgradient_20-347-1">
      <stop
         id="stop855-1"
         style="stop-color:#3af12d;opacity:1"
         stop-opacity="1"
         offset="3.0434782608695654%" />
      <stop
         id="stop857-8"
         style="stop-color:#7aff08;opacity:1"
         stop-opacity="1"
         offset="98.69565217391305%" />
    </linearGradient>
    <linearGradient
       y2="31.30871"
       x2="33.581284"
       y1="21.38439"
       x1="17.38265"
       id="_lgradient_21-456-7"
       gradientTransform="matrix(0.87941222,0,0,1.1371232,-16.021,-21.042)"
       gradientUnits="userSpaceOnUse">
      <stop
         id="stop860-3"
         style="stop-color:#3af12d;opacity:1"
         stop-opacity="1"
         offset="3.0434782608695654%" />
      <stop
         id="stop862-7"
         style="stop-color:#7aff08;opacity:1"
         stop-opacity="1"
         offset="98.69565217391305%" />
    </linearGradient>
    <linearGradient
       gradientUnits="userSpaceOnUse"
       gradientTransform="matrix(15.354,0,0,20,-20.354966,-5.3898307)"
       y2="0.71023709"
       x2="0.85220069"
       y1="0.15974073"
       x1="-0.046328004"
       id="_lgradient_20-347-208">
      <stop
         id="stop4635"
         style="stop-color:#c50ed2;opacity:1"
         stop-opacity="1"
         offset="3.0434782608695654%" />
      <stop
         id="stop4637"
         style="stop-color:#8500f7;opacity:1"
         stop-opacity="1"
         offset="98.69565217391305%" />
    </linearGradient>
    <linearGradient
       y2="31.308711"
       x2="33.581282"
       y1="21.38439"
       x1="17.382651"
       id="_lgradient_21-456-654"
       gradientTransform="matrix(0.87941222,0,0,1.1371232,-36.625966,-26.681831)"
       gradientUnits="userSpaceOnUse">
      <stop
         id="stop4640"
         style="stop-color:#c50ed2;opacity:1"
         stop-opacity="1"
         offset="3.0434782608695654%" />
      <stop
         id="stop4642"
         style="stop-color:#8500f7;opacity:1"
         stop-opacity="1"
         offset="98.69565217391305%" />
    </linearGradient>
    <linearGradient
       gradientUnits="userSpaceOnUse"
       gradientTransform="scale(15.354,20)"
       y2="0.71023709"
       x2="0.85220069"
       y1="0.15974073"
       x1="-0.046328004"
       id="_lgradient_20-347-208-9">
      <stop
         id="stop4635-9"
         style="stop-color:#c50ed2;opacity:1"
         stop-opacity="1"
         offset="3.0434782608695654%" />
      <stop
         id="stop4637-8"
         style="stop-color:#8500f7;opacity:1"
         stop-opacity="1"
         offset="98.69565217391305%" />
    </linearGradient>
    <linearGradient
       gradientUnits="userSpaceOnUse"
       gradientTransform="matrix(1.1444938,0,0,0.87374869,-15.322096,-26.157153)"
       id="_lgradient_19-500"
       x1="-1.4639771"
       y1="19.603802"
       x2="35.042823"
       y2="41.970211">
      <stop
         offset="3.0434782608695654%"
         stop-opacity="1"
         style="stop-color:#3af12d;opacity:1"
         id="stop911" />
      <stop
         offset="98.69565217391305%"
         stop-opacity="1"
         style="stop-color:#7aff08;opacity:1"
         id="stop913" />
    </linearGradient>
    <linearGradient
       gradientUnits="userSpaceOnUse"
       gradientTransform="matrix(15.354,0,0,20,-632.35497,-185.38983)"
       y2="0.71023709"
       x2="0.85220069"
       y1="0.15974073"
       x1="-0.046328004"
       id="_lgradient_20-347-7">
      <stop
         id="stop855-2"
         style="stop-color:#3af12d;opacity:1"
         stop-opacity="1"
         offset="3.0434782608695654%" />
      <stop
         id="stop857-1"
         style="stop-color:#7aff08;opacity:1"
         stop-opacity="1"
         offset="98.69565217391305%" />
    </linearGradient>
    <linearGradient
       y2="31.30871"
       x2="33.581284"
       y1="21.38439"
       x1="17.38265"
       id="_lgradient_21-456-78"
       gradientTransform="matrix(0.87941222,0,0,1.1371232,-648.62597,-206.68183)"
       gradientUnits="userSpaceOnUse">
      <stop
         id="stop860-0"
         style="stop-color:#3af12d;opacity:1"
         stop-opacity="1"
         offset="3.0434782608695654%" />
      <stop
         id="stop862-2"
         style="stop-color:#7aff08;opacity:1"
         stop-opacity="1"
         offset="98.69565217391305%" />
    </linearGradient>
    <filter
       inkscape:collect="always"
       style="color-interpolation-filters:sRGB"
       id="filter915">
      <feBlend
         inkscape:collect="always"
         mode="multiply"
         in2="BackgroundImage"
         id="feBlend917" />
    </filter>
  </defs>
  <g
     id="g14"
     transform="translate(-612 -180)">
    <path
       style="font-variant-east_asian:normal;opacity:1;vector-effect:non-scaling-stroke;fill:url(#_lgradient_20-347);fill-opacity:1;stroke-width:0.5;stroke-linecap:butt;stroke-linejoin:miter;stroke-miterlimit:4;stroke-dasharray:none;stroke-dashoffset:0;stroke-opacity:1;stroke:none"
       id="path4"
       overflow="visible"
       font-weight="400"
       font-family="sans-serif"
       color="#000"
       d="M624.316 181.297l-1 .021c.02.936-.075 1.85-.22 2.75.13-.037.263-.064.404-.064.214 0 .416.048.602.13.143-.928.234-1.871.214-2.837zm-7.933.262a33.263 33.263 0 0 0-.086 4.13c.211-.114.448-.185.703-.185.101 0 .2.012.297.031-.05-1.259-.03-2.556.082-3.892zm-3.867 1.847l-.016.022v1.191a74.836 74.836 0 0 0 2.898 1.973 17.49 17.49 0 0 0-2.898 1.53v1.169l.016.022a15.866 15.866 0 0 1 3.115-1.713 1.466 1.466 0 0 1-.131-.6c0-.477.233-.901.586-1.176a77.938 77.938 0 0 1-3.57-2.418zm15.396 1.223a82.062 82.062 0 0 0-3.119.129c.128.22.207.471.207.742 0 .085-.012.167-.025.248a83.057 83.057 0 0 1 2.959-.12zm-5.814.357c-1.467.167-2.887.415-4.25.784.298.206.516.518.605.878 1.166-.294 2.382-.5 3.64-.648a1.46 1.46 0 0 1-.093-.5c0-.18.038-.353.098-.514zm1.402.018a.49.49 0 0 0-.5.496.49.49 0 0 0 .746.426c.01-.036.022-.07.031-.106.034-.003.07-.003.104-.006a.49.49 0 0 0-.38-.81zm-6.5 1.5a.49.49 0 0 0-.5.496.49.49 0 0 0 .5.496.49.49 0 0 0 .5-.496.49.49 0 0 0-.5-.496zm5.498.1c-.152.473-.323.94-.512 1.398L622 188c.351 0 .673.127.93.332.18-.441.344-.888.492-1.344a1.49 1.49 0 0 1-.924-.385zm-4.021.626a1.49 1.49 0 0 1-.487.883c.82.445 1.661.858 2.526 1.229.037-.353.192-.671.433-.908a29.56 29.56 0 0 1-2.472-1.204zm-.891 1.143c-.181.078-.378.123-.586.123-.157 0-.305-.033-.447-.078.134.823.325 1.616.566 2.379.249-.182.552-.293.881-.293.027 0 .052.006.078.008a16.1 16.1 0 0 1-.492-2.139zM622 189a.49.49 0 0 0-.5.496c0 .207.12.38.299.455.019-.02.041-.037.06-.058.08.029.164.051.245.08a.482.482 0 0 0 .396-.477.49.49 0 0 0-.5-.496zm1.486.365c.004.044.014.086.014.131 0 .313-.099.603-.266.844 1.502.437 3.06.713 4.678.748l.022-1c-1.527-.033-3.01-.301-4.448-.723zm-2.955.432c-.48.419-1.009.775-1.57 1.066.26.22.445.519.51.864a8.952 8.952 0 0 0 1.595-1.073 1.496 1.496 0 0 1-.535-.857zM618 191.504a.49.49 0 0 0-.5.496.49.49 0 0 0 .5.496.49.49 0 0 0 .5-.496.49.49 0 0 0-.5-.496zm-1.473.24c-.145.037-.293.088-.435.117-.928.191-1.794.262-2.457.258a6.036 6.036 0 0 1-.819-.055c-.204-.03-.347-.094-.304-.068l-.012.02v1.007c.056.01.107.022.17.032.268.04.59.062.959.064.738.004 1.664-.072 2.664-.277.133-.028.274-.077.41-.11a1.465 1.465 0 0 1-.203-.732c0-.088.013-.173.027-.256zm2.618 1.207a1.5 1.5 0 0 1-.874.518c.236.402.49.792.776 1.162l.79-.613a8.761 8.761 0 0 1-.692-1.067z"
       opacity=".5"
       fill-rule="evenodd"
       fill="#ececec" />
    <ellipse
       id="ellipse6"
       ry=".996"
       rx="1"
       cy="192"
       cx="618"
       fill="#ececec"
       style="font-variant-east_asian:normal;opacity:1;vector-effect:non-scaling-stroke;fill:url(#_lgradient_20-347-208);fill-opacity:1;stroke:none;stroke-width:0.5;stroke-linecap:butt;stroke-linejoin:miter;stroke-miterlimit:4;stroke-dasharray:none;stroke-dashoffset:0;stroke-opacity:1" />
    <ellipse
       id="ellipse8"
       ry=".996"
       rx="1"
       cy="187"
       cx="617"
       fill="#ececec"
       style="font-variant-east_asian:normal;opacity:1;vector-effect:non-scaling-stroke;fill:url(#_lgradient_20-347-208);fill-opacity:1;stroke:none;stroke-width:0.5;stroke-linecap:butt;stroke-linejoin:miter;stroke-miterlimit:4;stroke-dasharray:none;stroke-dashoffset:0;stroke-opacity:1" />
    <ellipse
       id="ellipse10"
       ry=".996"
       rx="1"
       cy="185.5"
       cx="623.5"
       fill="#ececec"
       style="font-variant-east_asian:normal;opacity:1;vector-effect:non-scaling-stroke;fill:url(#_lgradient_20-347-208);fill-opacity:1;stroke:none;stroke-width:0.5;stroke-linecap:butt;stroke-linejoin:miter;stroke-miterlimit:4;stroke-dasharray:none;stroke-dashoffset:0;stroke-opacity:1" />
    <ellipse
       id="ellipse12"
       ry=".996"
       rx="1"
       cy="189.496"
       cx="622"
       fill="#ececec"
       style="font-variant-east_asian:normal;opacity:1;vector-effect:non-scaling-stroke;fill:url(#_lgradient_20-347-208);fill-opacity:1;stroke:none;stroke-width:0.5;stroke-linecap:butt;stroke-linejoin:miter;stroke-miterlimit:4;stroke-dasharray:none;stroke-dashoffset:0;stroke-opacity:1" />
  </g>
  <g
     inkscape:groupmode="layer"
     id="layer1"
     inkscape:label="Layer 1"
     style="display:none;filter:url(#filter915)"
     sodipodi:insensitive="true">
    <path
       inkscape:connector-curvature="0"
       style="color:#000000;font-weight:400;font-family:sans-serif;overflow:visible;opacity:1;vector-effect:non-scaling-stroke;fill:#808080;fill-opacity:1;stroke:#808080;stroke-width:0.5;stroke-linecap:butt;stroke-linejoin:miter;stroke-miterlimit:4;stroke-dasharray:none;stroke-dashoffset:0;stroke-opacity:1"
       id="path2-9"
       overflow="visible"
       font-weight="400"
       d="M 3.994,1 C 2.736,1.015 1.815,0.97 1.062,1.385 A 1.88,1.88 0 0 0 0.225,2.383 C 0.06,2.821 0,3.343 0,4 v 8 c 0,0.658 0.06,1.179 0.225,1.617 0.164,0.439 0.461,0.79 0.837,0.998 0.753,0.416 1.674,0.37 2.932,0.385 h 8.012 c 1.258,-0.015 2.179,0.03 2.932,-0.385 a 1.88,1.88 0 0 0 0.838,-0.998 C 15.94,13.179 16,12.657 16,12 V 4 C 16,3.342 15.94,2.821 15.775,2.383 A 1.88,1.88 0 0 0 14.938,1.385 C 14.185,0.969 13.264,1.015 12.006,1 H 3.998 Z M 4,2 h 8 c 1.259,0.015 2.087,0.06 2.453,0.262 0.184,0.1 0.29,0.212 0.387,0.472 C 14.937,2.994 15,3.408 15,4 v 8 c 0,0.592 -0.063,1.006 -0.16,1.266 -0.098,0.26 -0.203,0.371 -0.387,0.472 C 14.087,13.94 13.259,13.985 12,14 H 4 C 2.741,13.985 1.91,13.94 1.545,13.738 1.362,13.638 1.258,13.526 1.16,13.266 1.063,13.006 1,12.592 1,12 V 4 C 1,3.408 1.063,2.994 1.16,2.734 1.258,2.474 1.362,2.363 1.545,2.262 1.911,2.06 2.741,2.015 4,2 Z" />
  </g>
  <path
     inkscape:connector-curvature="0"
     style="font-weight:400;font-family:sans-serif;overflow:visible;fill:#ececec;fill-opacity:1"
     class="ColorScheme-Text"
     d="M 3.994,1 C 2.736,1.015 1.815,0.97 1.062,1.385 A 1.88,1.88 0 0 0 0.225,2.383 C 0.06,2.821 0,3.343 0,4 v 8 c 0,0.658 0.06,1.179 0.225,1.617 0.164,0.439 0.461,0.79 0.837,0.998 0.753,0.416 1.674,0.37 2.932,0.385 h 8.012 c 1.258,-0.015 2.179,0.03 2.932,-0.385 a 1.88,1.88 0 0 0 0.838,-0.998 C 15.94,13.179 16,12.657 16,12 V 4 C 16,3.342 15.94,2.821 15.775,2.383 A 1.88,1.88 0 0 0 14.938,1.385 C 14.185,0.969 13.264,1.015 12.006,1 H 3.998 Z M 4,2 h 8 c 1.259,0.015 2.087,0.06 2.453,0.262 0.184,0.1 0.29,0.212 0.387,0.472 C 14.937,2.994 15,3.408 15,4 v 8 c 0,0.592 -0.063,1.006 -0.16,1.266 -0.098,0.26 -0.203,0.371 -0.387,0.472 C 14.087,13.94 13.259,13.985 12,14 H 4 C 2.741,13.985 1.91,13.94 1.545,13.738 1.362,13.638 1.258,13.526 1.16,13.266 1.063,13.006 1,12.592 1,12 V 4 C 1,3.408 1.063,2.994 1.16,2.734 1.258,2.474 1.362,2.363 1.545,2.262 1.911,2.06 2.741,2.015 4,2 Z"
     font-weight="400"
     overflow="visible"
     id="path58" />
</svg>
